<svg id="Capa_1" data-name="Capa 1" xmlns="http://www.w3.org/2000/svg" viewBox="0 0 420.83 421"><defs><style>.cls-1{fill:#252a34;}.cls-1,.cls-2,.cls-3,.cls-4{stroke:#000;stroke-miterlimit:10;}.cls-2{fill:none;}.cls-3{fill:#fff;}.cls-4{fill:#08d9d6;}</style></defs><circle class="cls-1" cx="121.24" cy="248.98" r="21.93"/><path class="cls-2" d="M204.69,290.79" transform="translate(-41.77 -38.2)"/><path class="cls-1" d="M159.63,434.66c0,13.22,11.6,23.92,25.93,23.92l133.8.13c14.41,0,26.06-10.81,26.06-24.17l.13-92.39,91.76.25c13.7,0,24.79-12.67,24.79-28.32l-.37-129.15c0-15.86-11-28.7-24.67-28.7l-73.89.13,5.91,7.3a13.11,13.11,0,0,1,1,5,13.31,13.31,0,0,1-1.51,6.17L287.14,278V380c0,3.48-3.1,6.3-6.92,6.3l-116.69.25c-2.16,0-3.9,2.31-3.9,5.16Z" transform="translate(-41.77 -38.2)"/><path class="cls-3" d="M154.75,276.44" transform="translate(-41.77 -38.2)"/><path class="cls-3" d="M167.9,313.89" transform="translate(-41.77 -38.2)"/><path class="cls-2" d="M154.13,315.76" transform="translate(-41.77 -38.2)"/><path class="cls-4" d="M154.13,313.23a27.28,27.28,0,1,1,13.76.64v0l.08,1.45-.17,48.5c0,4.73,4.35,8.56,9.74,8.56l80.55.17,5.75-.09a8.56,8.56,0,0,0,8.56-8.56l-.25-85.84L190.72,174.61a11.9,11.9,0,0,1-1.26-5.67,12.75,12.75,0,0,1,2.14-6.42c2.74-4.37,17.1-21.55,37.39-44.3l1.63-4.41c2.18-2.19,3.93-2,4.28-2,2.88.33,5.69,4.6,5.29,10.7q-.13,5.66-.25,11.33a8.62,8.62,0,0,1-2.14,4.27,8.46,8.46,0,0,1-3.15,2.14,3.59,3.59,0,0,1-3-1.13,3.39,3.39,0,0,1-.76-2l-22.15,27.56a7.15,7.15,0,0,0-1.89,3.91,7.46,7.46,0,0,0,1.76,5.66l71.25,90.13q35.43-44.71,70.87-89.41a10.65,10.65,0,0,0,1.93-7.16,10.15,10.15,0,0,0-1.43-4.13l-21.78-25.18a5.54,5.54,0,0,1-4,1.51c-2.93-.28-4.46-3.57-4.79-4.28-.7-1.5-.42-2-.63-10.57-.07-3-.11-4.52-.12-4.66a10.31,10.31,0,0,1-.13-4,5.72,5.72,0,0,1,.93-2.19,5.5,5.5,0,0,1,5-2.21,5.44,5.44,0,0,1,4.62,4.26,4.16,4.16,0,0,1,0,1.15l15.49,17.37L345.17,64c0-13.94-11.54-25.22-25.81-25.22H185.94l-.05,0c-15.06,0-27.21,12.84-27.16,28.59l0,0v88.07H67.62c-14,0-25.35,11.89-25.35,26.59V316.17A25.66,25.66,0,0,0,68,341.85h85.76V315.34l0-2.52" transform="translate(-41.77 -38.2)"/><path class="cls-2" d="M167.43,314l.46-.1" transform="translate(-41.77 -38.2)"/><path class="cls-2" d="M167.43,314.54" transform="translate(-41.77 -38.2)"/><circle class="cls-3" cx="120.46" cy="248.98" r="13.09"/></svg>